<?xml version="1.0" encoding="utf-8" standalone="no"?>
<!DOCTYPE svg PUBLIC "-//W3C//DTD SVG 1.1//EN"
  "http://www.w3.org/Graphics/SVG/1.1/DTD/svg11.dtd">
<svg xmlns:xlink="http://www.w3.org/1999/xlink" width="849.321875pt" height="436.635469pt" viewBox="0 0 849.321875 436.635469" xmlns="http://www.w3.org/2000/svg" version="1.1">
 <metadata>
  <rdf:RDF xmlns:dc="http://purl.org/dc/elements/1.1/" xmlns:cc="http://creativecommons.org/ns#" xmlns:rdf="http://www.w3.org/1999/02/22-rdf-syntax-ns#">
   <cc:Work>
    <dc:type rdf:resource="http://purl.org/dc/dcmitype/StillImage"/>
    <dc:date>2025-04-08T21:17:51.287739</dc:date>
    <dc:format>image/svg+xml</dc:format>
    <dc:creator>
     <cc:Agent>
      <dc:title>Matplotlib v3.7.2, https://matplotlib.org/</dc:title>
     </cc:Agent>
    </dc:creator>
   </cc:Work>
  </rdf:RDF>
 </metadata>
 <defs>
  <style type="text/css">*{stroke-linejoin: round; stroke-linecap: butt}</style>
 </defs>
 <g id="figure_1">
  <g id="patch_1">
   <path d="M 0 436.635469 
L 849.321875 436.635469 
L 849.321875 0 
L 0 0 
z
" style="fill: #ffffff"/>
  </g>
  <g id="axes_1">
   <g id="patch_2">
    <path d="M 51.378125 399.079219 
L 832.578125 399.079219 
L 832.578125 10.999219 
L 51.378125 10.999219 
z
" style="fill: #ffffff"/>
   </g>
   <g id="matplotlib.axis_1">
    <g id="xtick_1">
     <g id="line2d_1">
      <path d="M 206.3657 399.079219 
L 206.3657 10.999219 
" clip-path="url(#p21a5c9c640)" style="fill: none; stroke: #b0b0b0; stroke-width: 0.8; stroke-linecap: square"/>
     </g>
     <g id="line2d_2">
      <defs>
       <path id="m8a10f63381" d="M 0 0 
L 0 3.5 
" style="stroke: #000000; stroke-width: 0.8"/>
      </defs>
      <g>
       <use xlink:href="#m8a10f63381" x="206.3657" y="399.079219" style="stroke: #000000; stroke-width: 0.8"/>
      </g>
     </g>
     <g id="text_1">
      <!-- 100 -->
      <g transform="translate(196.82195 413.677656) scale(0.1 -0.1)">
       <defs>
        <path id="DejaVuSans-31" d="M 794 531 
L 1825 531 
L 1825 4091 
L 703 3866 
L 703 4441 
L 1819 4666 
L 2450 4666 
L 2450 531 
L 3481 531 
L 3481 0 
L 794 0 
L 794 531 
z
" transform="scale(0.015625)"/>
        <path id="DejaVuSans-30" d="M 2034 4250 
Q 1547 4250 1301 3770 
Q 1056 3291 1056 2328 
Q 1056 1369 1301 889 
Q 1547 409 2034 409 
Q 2525 409 2770 889 
Q 3016 1369 3016 2328 
Q 3016 3291 2770 3770 
Q 2525 4250 2034 4250 
z
M 2034 4750 
Q 2819 4750 3233 4129 
Q 3647 3509 3647 2328 
Q 3647 1150 3233 529 
Q 2819 -91 2034 -91 
Q 1250 -91 836 529 
Q 422 1150 422 2328 
Q 422 3509 836 4129 
Q 1250 4750 2034 4750 
z
" transform="scale(0.015625)"/>
       </defs>
       <use xlink:href="#DejaVuSans-31"/>
       <use xlink:href="#DejaVuSans-30" x="63.623047"/>
       <use xlink:href="#DejaVuSans-30" x="127.246094"/>
      </g>
     </g>
    </g>
    <g id="xtick_2">
     <g id="line2d_3">
      <path d="M 362.918806 399.079219 
L 362.918806 10.999219 
" clip-path="url(#p21a5c9c640)" style="fill: none; stroke: #b0b0b0; stroke-width: 0.8; stroke-linecap: square"/>
     </g>
     <g id="line2d_4">
      <g>
       <use xlink:href="#m8a10f63381" x="362.918806" y="399.079219" style="stroke: #000000; stroke-width: 0.8"/>
      </g>
     </g>
     <g id="text_2">
      <!-- 200 -->
      <g transform="translate(353.375056 413.677656) scale(0.1 -0.1)">
       <defs>
        <path id="DejaVuSans-32" d="M 1228 531 
L 3431 531 
L 3431 0 
L 469 0 
L 469 531 
Q 828 903 1448 1529 
Q 2069 2156 2228 2338 
Q 2531 2678 2651 2914 
Q 2772 3150 2772 3378 
Q 2772 3750 2511 3984 
Q 2250 4219 1831 4219 
Q 1534 4219 1204 4116 
Q 875 4013 500 3803 
L 500 4441 
Q 881 4594 1212 4672 
Q 1544 4750 1819 4750 
Q 2544 4750 2975 4387 
Q 3406 4025 3406 3419 
Q 3406 3131 3298 2873 
Q 3191 2616 2906 2266 
Q 2828 2175 2409 1742 
Q 1991 1309 1228 531 
z
" transform="scale(0.015625)"/>
       </defs>
       <use xlink:href="#DejaVuSans-32"/>
       <use xlink:href="#DejaVuSans-30" x="63.623047"/>
       <use xlink:href="#DejaVuSans-30" x="127.246094"/>
      </g>
     </g>
    </g>
    <g id="xtick_3">
     <g id="line2d_5">
      <path d="M 519.471913 399.079219 
L 519.471913 10.999219 
" clip-path="url(#p21a5c9c640)" style="fill: none; stroke: #b0b0b0; stroke-width: 0.8; stroke-linecap: square"/>
     </g>
     <g id="line2d_6">
      <g>
       <use xlink:href="#m8a10f63381" x="519.471913" y="399.079219" style="stroke: #000000; stroke-width: 0.8"/>
      </g>
     </g>
     <g id="text_3">
      <!-- 300 -->
      <g transform="translate(509.928163 413.677656) scale(0.1 -0.1)">
       <defs>
        <path id="DejaVuSans-33" d="M 2597 2516 
Q 3050 2419 3304 2112 
Q 3559 1806 3559 1356 
Q 3559 666 3084 287 
Q 2609 -91 1734 -91 
Q 1441 -91 1130 -33 
Q 819 25 488 141 
L 488 750 
Q 750 597 1062 519 
Q 1375 441 1716 441 
Q 2309 441 2620 675 
Q 2931 909 2931 1356 
Q 2931 1769 2642 2001 
Q 2353 2234 1838 2234 
L 1294 2234 
L 1294 2753 
L 1863 2753 
Q 2328 2753 2575 2939 
Q 2822 3125 2822 3475 
Q 2822 3834 2567 4026 
Q 2313 4219 1838 4219 
Q 1578 4219 1281 4162 
Q 984 4106 628 3988 
L 628 4550 
Q 988 4650 1302 4700 
Q 1616 4750 1894 4750 
Q 2613 4750 3031 4423 
Q 3450 4097 3450 3541 
Q 3450 3153 3228 2886 
Q 3006 2619 2597 2516 
z
" transform="scale(0.015625)"/>
       </defs>
       <use xlink:href="#DejaVuSans-33"/>
       <use xlink:href="#DejaVuSans-30" x="63.623047"/>
       <use xlink:href="#DejaVuSans-30" x="127.246094"/>
      </g>
     </g>
    </g>
    <g id="xtick_4">
     <g id="line2d_7">
      <path d="M 676.025019 399.079219 
L 676.025019 10.999219 
" clip-path="url(#p21a5c9c640)" style="fill: none; stroke: #b0b0b0; stroke-width: 0.8; stroke-linecap: square"/>
     </g>
     <g id="line2d_8">
      <g>
       <use xlink:href="#m8a10f63381" x="676.025019" y="399.079219" style="stroke: #000000; stroke-width: 0.8"/>
      </g>
     </g>
     <g id="text_4">
      <!-- 400 -->
      <g transform="translate(666.481269 413.677656) scale(0.1 -0.1)">
       <defs>
        <path id="DejaVuSans-34" d="M 2419 4116 
L 825 1625 
L 2419 1625 
L 2419 4116 
z
M 2253 4666 
L 3047 4666 
L 3047 1625 
L 3713 1625 
L 3713 1100 
L 3047 1100 
L 3047 0 
L 2419 0 
L 2419 1100 
L 313 1100 
L 313 1709 
L 2253 4666 
z
" transform="scale(0.015625)"/>
       </defs>
       <use xlink:href="#DejaVuSans-34"/>
       <use xlink:href="#DejaVuSans-30" x="63.623047"/>
       <use xlink:href="#DejaVuSans-30" x="127.246094"/>
      </g>
     </g>
    </g>
    <g id="xtick_5">
     <g id="line2d_9">
      <path d="M 832.578125 399.079219 
L 832.578125 10.999219 
" clip-path="url(#p21a5c9c640)" style="fill: none; stroke: #b0b0b0; stroke-width: 0.8; stroke-linecap: square"/>
     </g>
     <g id="line2d_10">
      <g>
       <use xlink:href="#m8a10f63381" x="832.578125" y="399.079219" style="stroke: #000000; stroke-width: 0.8"/>
      </g>
     </g>
     <g id="text_5">
      <!-- 500 -->
      <g transform="translate(823.034375 413.677656) scale(0.1 -0.1)">
       <defs>
        <path id="DejaVuSans-35" d="M 691 4666 
L 3169 4666 
L 3169 4134 
L 1269 4134 
L 1269 2991 
Q 1406 3038 1543 3061 
Q 1681 3084 1819 3084 
Q 2600 3084 3056 2656 
Q 3513 2228 3513 1497 
Q 3513 744 3044 326 
Q 2575 -91 1722 -91 
Q 1428 -91 1123 -41 
Q 819 9 494 109 
L 494 744 
Q 775 591 1075 516 
Q 1375 441 1709 441 
Q 2250 441 2565 725 
Q 2881 1009 2881 1497 
Q 2881 1984 2565 2268 
Q 2250 2553 1709 2553 
Q 1456 2553 1204 2497 
Q 953 2441 691 2322 
L 691 4666 
z
" transform="scale(0.015625)"/>
       </defs>
       <use xlink:href="#DejaVuSans-35"/>
       <use xlink:href="#DejaVuSans-30" x="63.623047"/>
       <use xlink:href="#DejaVuSans-30" x="127.246094"/>
      </g>
     </g>
    </g>
    <g id="text_6">
     <!-- epoch -->
     <g transform="translate(426.75 427.355781) scale(0.1 -0.1)">
      <defs>
       <path id="DejaVuSans-65" d="M 3597 1894 
L 3597 1613 
L 953 1613 
Q 991 1019 1311 708 
Q 1631 397 2203 397 
Q 2534 397 2845 478 
Q 3156 559 3463 722 
L 3463 178 
Q 3153 47 2828 -22 
Q 2503 -91 2169 -91 
Q 1331 -91 842 396 
Q 353 884 353 1716 
Q 353 2575 817 3079 
Q 1281 3584 2069 3584 
Q 2775 3584 3186 3129 
Q 3597 2675 3597 1894 
z
M 3022 2063 
Q 3016 2534 2758 2815 
Q 2500 3097 2075 3097 
Q 1594 3097 1305 2825 
Q 1016 2553 972 2059 
L 3022 2063 
z
" transform="scale(0.015625)"/>
       <path id="DejaVuSans-70" d="M 1159 525 
L 1159 -1331 
L 581 -1331 
L 581 3500 
L 1159 3500 
L 1159 2969 
Q 1341 3281 1617 3432 
Q 1894 3584 2278 3584 
Q 2916 3584 3314 3078 
Q 3713 2572 3713 1747 
Q 3713 922 3314 415 
Q 2916 -91 2278 -91 
Q 1894 -91 1617 61 
Q 1341 213 1159 525 
z
M 3116 1747 
Q 3116 2381 2855 2742 
Q 2594 3103 2138 3103 
Q 1681 3103 1420 2742 
Q 1159 2381 1159 1747 
Q 1159 1113 1420 752 
Q 1681 391 2138 391 
Q 2594 391 2855 752 
Q 3116 1113 3116 1747 
z
" transform="scale(0.015625)"/>
       <path id="DejaVuSans-6f" d="M 1959 3097 
Q 1497 3097 1228 2736 
Q 959 2375 959 1747 
Q 959 1119 1226 758 
Q 1494 397 1959 397 
Q 2419 397 2687 759 
Q 2956 1122 2956 1747 
Q 2956 2369 2687 2733 
Q 2419 3097 1959 3097 
z
M 1959 3584 
Q 2709 3584 3137 3096 
Q 3566 2609 3566 1747 
Q 3566 888 3137 398 
Q 2709 -91 1959 -91 
Q 1206 -91 779 398 
Q 353 888 353 1747 
Q 353 2609 779 3096 
Q 1206 3584 1959 3584 
z
" transform="scale(0.015625)"/>
       <path id="DejaVuSans-63" d="M 3122 3366 
L 3122 2828 
Q 2878 2963 2633 3030 
Q 2388 3097 2138 3097 
Q 1578 3097 1268 2742 
Q 959 2388 959 1747 
Q 959 1106 1268 751 
Q 1578 397 2138 397 
Q 2388 397 2633 464 
Q 2878 531 3122 666 
L 3122 134 
Q 2881 22 2623 -34 
Q 2366 -91 2075 -91 
Q 1284 -91 818 406 
Q 353 903 353 1747 
Q 353 2603 823 3093 
Q 1294 3584 2113 3584 
Q 2378 3584 2631 3529 
Q 2884 3475 3122 3366 
z
" transform="scale(0.015625)"/>
       <path id="DejaVuSans-68" d="M 3513 2113 
L 3513 0 
L 2938 0 
L 2938 2094 
Q 2938 2591 2744 2837 
Q 2550 3084 2163 3084 
Q 1697 3084 1428 2787 
Q 1159 2491 1159 1978 
L 1159 0 
L 581 0 
L 581 4863 
L 1159 4863 
L 1159 2956 
Q 1366 3272 1645 3428 
Q 1925 3584 2291 3584 
Q 2894 3584 3203 3211 
Q 3513 2838 3513 2113 
z
" transform="scale(0.015625)"/>
      </defs>
      <use xlink:href="#DejaVuSans-65"/>
      <use xlink:href="#DejaVuSans-70" x="61.523438"/>
      <use xlink:href="#DejaVuSans-6f" x="125"/>
      <use xlink:href="#DejaVuSans-63" x="186.181641"/>
      <use xlink:href="#DejaVuSans-68" x="241.162109"/>
     </g>
    </g>
   </g>
   <g id="matplotlib.axis_2">
    <g id="ytick_1">
     <g id="line2d_11">
      <path d="M 51.378125 399.079219 
L 832.578125 399.079219 
" clip-path="url(#p21a5c9c640)" style="fill: none; stroke: #b0b0b0; stroke-width: 0.8; stroke-linecap: square"/>
     </g>
     <g id="line2d_12">
      <defs>
       <path id="mc395aa4aed" d="M 0 0 
L -3.5 0 
" style="stroke: #000000; stroke-width: 0.8"/>
      </defs>
      <g>
       <use xlink:href="#mc395aa4aed" x="51.378125" y="399.079219" style="stroke: #000000; stroke-width: 0.8"/>
      </g>
     </g>
     <g id="text_7">
      <!-- $\mathdefault{10^{-2}}$ -->
      <g transform="translate(20.878125 402.878437) scale(0.1 -0.1)">
       <defs>
        <path id="DejaVuSans-2212" d="M 678 2272 
L 4684 2272 
L 4684 1741 
L 678 1741 
L 678 2272 
z
" transform="scale(0.015625)"/>
       </defs>
       <use xlink:href="#DejaVuSans-31" transform="translate(0 0.765625)"/>
       <use xlink:href="#DejaVuSans-30" transform="translate(63.623047 0.765625)"/>
       <use xlink:href="#DejaVuSans-2212" transform="translate(128.203125 39.046875) scale(0.7)"/>
       <use xlink:href="#DejaVuSans-32" transform="translate(186.855469 39.046875) scale(0.7)"/>
      </g>
     </g>
    </g>
    <g id="ytick_2">
     <g id="line2d_13">
      <path d="M 51.378125 334.399219 
L 832.578125 334.399219 
" clip-path="url(#p21a5c9c640)" style="fill: none; stroke: #b0b0b0; stroke-width: 0.8; stroke-linecap: square"/>
     </g>
     <g id="line2d_14">
      <g>
       <use xlink:href="#mc395aa4aed" x="51.378125" y="334.399219" style="stroke: #000000; stroke-width: 0.8"/>
      </g>
     </g>
     <g id="text_8">
      <!-- $\mathdefault{10^{-1}}$ -->
      <g transform="translate(20.878125 338.198437) scale(0.1 -0.1)">
       <use xlink:href="#DejaVuSans-31" transform="translate(0 0.684375)"/>
       <use xlink:href="#DejaVuSans-30" transform="translate(63.623047 0.684375)"/>
       <use xlink:href="#DejaVuSans-2212" transform="translate(128.203125 38.965625) scale(0.7)"/>
       <use xlink:href="#DejaVuSans-31" transform="translate(186.855469 38.965625) scale(0.7)"/>
      </g>
     </g>
    </g>
    <g id="ytick_3">
     <g id="line2d_15">
      <path d="M 51.378125 269.719219 
L 832.578125 269.719219 
" clip-path="url(#p21a5c9c640)" style="fill: none; stroke: #b0b0b0; stroke-width: 0.8; stroke-linecap: square"/>
     </g>
     <g id="line2d_16">
      <g>
       <use xlink:href="#mc395aa4aed" x="51.378125" y="269.719219" style="stroke: #000000; stroke-width: 0.8"/>
      </g>
     </g>
     <g id="text_9">
      <!-- $\mathdefault{10^{0}}$ -->
      <g transform="translate(26.778125 273.518437) scale(0.1 -0.1)">
       <use xlink:href="#DejaVuSans-31" transform="translate(0 0.765625)"/>
       <use xlink:href="#DejaVuSans-30" transform="translate(63.623047 0.765625)"/>
       <use xlink:href="#DejaVuSans-30" transform="translate(128.203125 39.046875) scale(0.7)"/>
      </g>
     </g>
    </g>
    <g id="ytick_4">
     <g id="line2d_17">
      <path d="M 51.378125 205.039219 
L 832.578125 205.039219 
" clip-path="url(#p21a5c9c640)" style="fill: none; stroke: #b0b0b0; stroke-width: 0.8; stroke-linecap: square"/>
     </g>
     <g id="line2d_18">
      <g>
       <use xlink:href="#mc395aa4aed" x="51.378125" y="205.039219" style="stroke: #000000; stroke-width: 0.8"/>
      </g>
     </g>
     <g id="text_10">
      <!-- $\mathdefault{10^{1}}$ -->
      <g transform="translate(26.778125 208.838437) scale(0.1 -0.1)">
       <use xlink:href="#DejaVuSans-31" transform="translate(0 0.684375)"/>
       <use xlink:href="#DejaVuSans-30" transform="translate(63.623047 0.684375)"/>
       <use xlink:href="#DejaVuSans-31" transform="translate(128.203125 38.965625) scale(0.7)"/>
      </g>
     </g>
    </g>
    <g id="ytick_5">
     <g id="line2d_19">
      <path d="M 51.378125 140.359219 
L 832.578125 140.359219 
" clip-path="url(#p21a5c9c640)" style="fill: none; stroke: #b0b0b0; stroke-width: 0.8; stroke-linecap: square"/>
     </g>
     <g id="line2d_20">
      <g>
       <use xlink:href="#mc395aa4aed" x="51.378125" y="140.359219" style="stroke: #000000; stroke-width: 0.8"/>
      </g>
     </g>
     <g id="text_11">
      <!-- $\mathdefault{10^{2}}$ -->
      <g transform="translate(26.778125 144.158437) scale(0.1 -0.1)">
       <use xlink:href="#DejaVuSans-31" transform="translate(0 0.765625)"/>
       <use xlink:href="#DejaVuSans-30" transform="translate(63.623047 0.765625)"/>
       <use xlink:href="#DejaVuSans-32" transform="translate(128.203125 39.046875) scale(0.7)"/>
      </g>
     </g>
    </g>
    <g id="ytick_6">
     <g id="line2d_21">
      <path d="M 51.378125 75.679219 
L 832.578125 75.679219 
" clip-path="url(#p21a5c9c640)" style="fill: none; stroke: #b0b0b0; stroke-width: 0.8; stroke-linecap: square"/>
     </g>
     <g id="line2d_22">
      <g>
       <use xlink:href="#mc395aa4aed" x="51.378125" y="75.679219" style="stroke: #000000; stroke-width: 0.8"/>
      </g>
     </g>
     <g id="text_12">
      <!-- $\mathdefault{10^{3}}$ -->
      <g transform="translate(26.778125 79.478437) scale(0.1 -0.1)">
       <use xlink:href="#DejaVuSans-31" transform="translate(0 0.765625)"/>
       <use xlink:href="#DejaVuSans-30" transform="translate(63.623047 0.765625)"/>
       <use xlink:href="#DejaVuSans-33" transform="translate(128.203125 39.046875) scale(0.7)"/>
      </g>
     </g>
    </g>
    <g id="ytick_7">
     <g id="line2d_23">
      <path d="M 51.378125 10.999219 
L 832.578125 10.999219 
" clip-path="url(#p21a5c9c640)" style="fill: none; stroke: #b0b0b0; stroke-width: 0.8; stroke-linecap: square"/>
     </g>
     <g id="line2d_24">
      <g>
       <use xlink:href="#mc395aa4aed" x="51.378125" y="10.999219" style="stroke: #000000; stroke-width: 0.8"/>
      </g>
     </g>
     <g id="text_13">
      <!-- $\mathdefault{10^{4}}$ -->
      <g transform="translate(26.778125 14.798437) scale(0.1 -0.1)">
       <use xlink:href="#DejaVuSans-31" transform="translate(0 0.684375)"/>
       <use xlink:href="#DejaVuSans-30" transform="translate(63.623047 0.684375)"/>
       <use xlink:href="#DejaVuSans-34" transform="translate(128.203125 38.965625) scale(0.7)"/>
      </g>
     </g>
    </g>
    <g id="ytick_8">
     <g id="line2d_25">
      <defs>
       <path id="m5a81614203" d="M 0 0 
L -2 0 
" style="stroke: #000000; stroke-width: 0.6"/>
      </defs>
      <g>
       <use xlink:href="#m5a81614203" x="51.378125" y="379.608599" style="stroke: #000000; stroke-width: 0.6"/>
      </g>
     </g>
    </g>
    <g id="ytick_9">
     <g id="line2d_26">
      <g>
       <use xlink:href="#m5a81614203" x="51.378125" y="368.219016" style="stroke: #000000; stroke-width: 0.6"/>
      </g>
     </g>
    </g>
    <g id="ytick_10">
     <g id="line2d_27">
      <g>
       <use xlink:href="#m5a81614203" x="51.378125" y="360.137979" style="stroke: #000000; stroke-width: 0.6"/>
      </g>
     </g>
    </g>
    <g id="ytick_11">
     <g id="line2d_28">
      <g>
       <use xlink:href="#m5a81614203" x="51.378125" y="353.869839" style="stroke: #000000; stroke-width: 0.6"/>
      </g>
     </g>
    </g>
    <g id="ytick_12">
     <g id="line2d_29">
      <g>
       <use xlink:href="#m5a81614203" x="51.378125" y="348.748396" style="stroke: #000000; stroke-width: 0.6"/>
      </g>
     </g>
    </g>
    <g id="ytick_13">
     <g id="line2d_30">
      <g>
       <use xlink:href="#m5a81614203" x="51.378125" y="344.418278" style="stroke: #000000; stroke-width: 0.6"/>
      </g>
     </g>
    </g>
    <g id="ytick_14">
     <g id="line2d_31">
      <g>
       <use xlink:href="#m5a81614203" x="51.378125" y="340.667358" style="stroke: #000000; stroke-width: 0.6"/>
      </g>
     </g>
    </g>
    <g id="ytick_15">
     <g id="line2d_32">
      <g>
       <use xlink:href="#m5a81614203" x="51.378125" y="337.358813" style="stroke: #000000; stroke-width: 0.6"/>
      </g>
     </g>
    </g>
    <g id="ytick_16">
     <g id="line2d_33">
      <g>
       <use xlink:href="#m5a81614203" x="51.378125" y="314.928599" style="stroke: #000000; stroke-width: 0.6"/>
      </g>
     </g>
    </g>
    <g id="ytick_17">
     <g id="line2d_34">
      <g>
       <use xlink:href="#m5a81614203" x="51.378125" y="303.539016" style="stroke: #000000; stroke-width: 0.6"/>
      </g>
     </g>
    </g>
    <g id="ytick_18">
     <g id="line2d_35">
      <g>
       <use xlink:href="#m5a81614203" x="51.378125" y="295.457979" style="stroke: #000000; stroke-width: 0.6"/>
      </g>
     </g>
    </g>
    <g id="ytick_19">
     <g id="line2d_36">
      <g>
       <use xlink:href="#m5a81614203" x="51.378125" y="289.189839" style="stroke: #000000; stroke-width: 0.6"/>
      </g>
     </g>
    </g>
    <g id="ytick_20">
     <g id="line2d_37">
      <g>
       <use xlink:href="#m5a81614203" x="51.378125" y="284.068396" style="stroke: #000000; stroke-width: 0.6"/>
      </g>
     </g>
    </g>
    <g id="ytick_21">
     <g id="line2d_38">
      <g>
       <use xlink:href="#m5a81614203" x="51.378125" y="279.738278" style="stroke: #000000; stroke-width: 0.6"/>
      </g>
     </g>
    </g>
    <g id="ytick_22">
     <g id="line2d_39">
      <g>
       <use xlink:href="#m5a81614203" x="51.378125" y="275.987358" style="stroke: #000000; stroke-width: 0.6"/>
      </g>
     </g>
    </g>
    <g id="ytick_23">
     <g id="line2d_40">
      <g>
       <use xlink:href="#m5a81614203" x="51.378125" y="272.678813" style="stroke: #000000; stroke-width: 0.6"/>
      </g>
     </g>
    </g>
    <g id="ytick_24">
     <g id="line2d_41">
      <g>
       <use xlink:href="#m5a81614203" x="51.378125" y="250.248599" style="stroke: #000000; stroke-width: 0.6"/>
      </g>
     </g>
    </g>
    <g id="ytick_25">
     <g id="line2d_42">
      <g>
       <use xlink:href="#m5a81614203" x="51.378125" y="238.859016" style="stroke: #000000; stroke-width: 0.6"/>
      </g>
     </g>
    </g>
    <g id="ytick_26">
     <g id="line2d_43">
      <g>
       <use xlink:href="#m5a81614203" x="51.378125" y="230.777979" style="stroke: #000000; stroke-width: 0.6"/>
      </g>
     </g>
    </g>
    <g id="ytick_27">
     <g id="line2d_44">
      <g>
       <use xlink:href="#m5a81614203" x="51.378125" y="224.509839" style="stroke: #000000; stroke-width: 0.6"/>
      </g>
     </g>
    </g>
    <g id="ytick_28">
     <g id="line2d_45">
      <g>
       <use xlink:href="#m5a81614203" x="51.378125" y="219.388396" style="stroke: #000000; stroke-width: 0.6"/>
      </g>
     </g>
    </g>
    <g id="ytick_29">
     <g id="line2d_46">
      <g>
       <use xlink:href="#m5a81614203" x="51.378125" y="215.058278" style="stroke: #000000; stroke-width: 0.6"/>
      </g>
     </g>
    </g>
    <g id="ytick_30">
     <g id="line2d_47">
      <g>
       <use xlink:href="#m5a81614203" x="51.378125" y="211.307358" style="stroke: #000000; stroke-width: 0.6"/>
      </g>
     </g>
    </g>
    <g id="ytick_31">
     <g id="line2d_48">
      <g>
       <use xlink:href="#m5a81614203" x="51.378125" y="207.998813" style="stroke: #000000; stroke-width: 0.6"/>
      </g>
     </g>
    </g>
    <g id="ytick_32">
     <g id="line2d_49">
      <g>
       <use xlink:href="#m5a81614203" x="51.378125" y="185.568599" style="stroke: #000000; stroke-width: 0.6"/>
      </g>
     </g>
    </g>
    <g id="ytick_33">
     <g id="line2d_50">
      <g>
       <use xlink:href="#m5a81614203" x="51.378125" y="174.179016" style="stroke: #000000; stroke-width: 0.6"/>
      </g>
     </g>
    </g>
    <g id="ytick_34">
     <g id="line2d_51">
      <g>
       <use xlink:href="#m5a81614203" x="51.378125" y="166.097979" style="stroke: #000000; stroke-width: 0.6"/>
      </g>
     </g>
    </g>
    <g id="ytick_35">
     <g id="line2d_52">
      <g>
       <use xlink:href="#m5a81614203" x="51.378125" y="159.829839" style="stroke: #000000; stroke-width: 0.6"/>
      </g>
     </g>
    </g>
    <g id="ytick_36">
     <g id="line2d_53">
      <g>
       <use xlink:href="#m5a81614203" x="51.378125" y="154.708396" style="stroke: #000000; stroke-width: 0.6"/>
      </g>
     </g>
    </g>
    <g id="ytick_37">
     <g id="line2d_54">
      <g>
       <use xlink:href="#m5a81614203" x="51.378125" y="150.378278" style="stroke: #000000; stroke-width: 0.6"/>
      </g>
     </g>
    </g>
    <g id="ytick_38">
     <g id="line2d_55">
      <g>
       <use xlink:href="#m5a81614203" x="51.378125" y="146.627358" style="stroke: #000000; stroke-width: 0.6"/>
      </g>
     </g>
    </g>
    <g id="ytick_39">
     <g id="line2d_56">
      <g>
       <use xlink:href="#m5a81614203" x="51.378125" y="143.318813" style="stroke: #000000; stroke-width: 0.6"/>
      </g>
     </g>
    </g>
    <g id="ytick_40">
     <g id="line2d_57">
      <g>
       <use xlink:href="#m5a81614203" x="51.378125" y="120.888599" style="stroke: #000000; stroke-width: 0.6"/>
      </g>
     </g>
    </g>
    <g id="ytick_41">
     <g id="line2d_58">
      <g>
       <use xlink:href="#m5a81614203" x="51.378125" y="109.499016" style="stroke: #000000; stroke-width: 0.6"/>
      </g>
     </g>
    </g>
    <g id="ytick_42">
     <g id="line2d_59">
      <g>
       <use xlink:href="#m5a81614203" x="51.378125" y="101.417979" style="stroke: #000000; stroke-width: 0.6"/>
      </g>
     </g>
    </g>
    <g id="ytick_43">
     <g id="line2d_60">
      <g>
       <use xlink:href="#m5a81614203" x="51.378125" y="95.149839" style="stroke: #000000; stroke-width: 0.6"/>
      </g>
     </g>
    </g>
    <g id="ytick_44">
     <g id="line2d_61">
      <g>
       <use xlink:href="#m5a81614203" x="51.378125" y="90.028396" style="stroke: #000000; stroke-width: 0.6"/>
      </g>
     </g>
    </g>
    <g id="ytick_45">
     <g id="line2d_62">
      <g>
       <use xlink:href="#m5a81614203" x="51.378125" y="85.698278" style="stroke: #000000; stroke-width: 0.6"/>
      </g>
     </g>
    </g>
    <g id="ytick_46">
     <g id="line2d_63">
      <g>
       <use xlink:href="#m5a81614203" x="51.378125" y="81.947358" style="stroke: #000000; stroke-width: 0.6"/>
      </g>
     </g>
    </g>
    <g id="ytick_47">
     <g id="line2d_64">
      <g>
       <use xlink:href="#m5a81614203" x="51.378125" y="78.638813" style="stroke: #000000; stroke-width: 0.6"/>
      </g>
     </g>
    </g>
    <g id="ytick_48">
     <g id="line2d_65">
      <g>
       <use xlink:href="#m5a81614203" x="51.378125" y="56.208599" style="stroke: #000000; stroke-width: 0.6"/>
      </g>
     </g>
    </g>
    <g id="ytick_49">
     <g id="line2d_66">
      <g>
       <use xlink:href="#m5a81614203" x="51.378125" y="44.819016" style="stroke: #000000; stroke-width: 0.6"/>
      </g>
     </g>
    </g>
    <g id="ytick_50">
     <g id="line2d_67">
      <g>
       <use xlink:href="#m5a81614203" x="51.378125" y="36.737979" style="stroke: #000000; stroke-width: 0.6"/>
      </g>
     </g>
    </g>
    <g id="ytick_51">
     <g id="line2d_68">
      <g>
       <use xlink:href="#m5a81614203" x="51.378125" y="30.469839" style="stroke: #000000; stroke-width: 0.6"/>
      </g>
     </g>
    </g>
    <g id="ytick_52">
     <g id="line2d_69">
      <g>
       <use xlink:href="#m5a81614203" x="51.378125" y="25.348396" style="stroke: #000000; stroke-width: 0.6"/>
      </g>
     </g>
    </g>
    <g id="ytick_53">
     <g id="line2d_70">
      <g>
       <use xlink:href="#m5a81614203" x="51.378125" y="21.018278" style="stroke: #000000; stroke-width: 0.6"/>
      </g>
     </g>
    </g>
    <g id="ytick_54">
     <g id="line2d_71">
      <g>
       <use xlink:href="#m5a81614203" x="51.378125" y="17.267358" style="stroke: #000000; stroke-width: 0.6"/>
      </g>
     </g>
    </g>
    <g id="ytick_55">
     <g id="line2d_72">
      <g>
       <use xlink:href="#m5a81614203" x="51.378125" y="13.958813" style="stroke: #000000; stroke-width: 0.6"/>
      </g>
     </g>
    </g>
    <g id="text_14">
     <!-- loss -->
     <g transform="translate(14.798438 214.697031) rotate(-90) scale(0.1 -0.1)">
      <defs>
       <path id="DejaVuSans-6c" d="M 603 4863 
L 1178 4863 
L 1178 0 
L 603 0 
L 603 4863 
z
" transform="scale(0.015625)"/>
       <path id="DejaVuSans-73" d="M 2834 3397 
L 2834 2853 
Q 2591 2978 2328 3040 
Q 2066 3103 1784 3103 
Q 1356 3103 1142 2972 
Q 928 2841 928 2578 
Q 928 2378 1081 2264 
Q 1234 2150 1697 2047 
L 1894 2003 
Q 2506 1872 2764 1633 
Q 3022 1394 3022 966 
Q 3022 478 2636 193 
Q 2250 -91 1575 -91 
Q 1294 -91 989 -36 
Q 684 19 347 128 
L 347 722 
Q 666 556 975 473 
Q 1284 391 1588 391 
Q 1994 391 2212 530 
Q 2431 669 2431 922 
Q 2431 1156 2273 1281 
Q 2116 1406 1581 1522 
L 1381 1569 
Q 847 1681 609 1914 
Q 372 2147 372 2553 
Q 372 3047 722 3315 
Q 1072 3584 1716 3584 
Q 2034 3584 2315 3537 
Q 2597 3491 2834 3397 
z
" transform="scale(0.015625)"/>
      </defs>
      <use xlink:href="#DejaVuSans-6c"/>
      <use xlink:href="#DejaVuSans-6f" x="27.783203"/>
      <use xlink:href="#DejaVuSans-73" x="88.964844"/>
      <use xlink:href="#DejaVuSans-73" x="141.064453"/>
     </g>
    </g>
   </g>
   <g id="line2d_73">
    <path d="M 56.40717 -1 
L 57.640249 10.040325 
L 59.20578 18.822572 
L 60.771311 41.454832 
L 62.336842 52.28436 
L 63.902373 50.005756 
L 65.467905 53.940296 
L 67.033436 56.088831 
L 68.598967 60.317 
L 70.164498 53.701001 
L 73.29556 52.281271 
L 74.861091 74.372356 
L 76.426622 72.818875 
L 77.992153 62.641819 
L 79.557684 70.026661 
L 81.123215 65.508387 
L 82.688746 65.784151 
L 84.254277 83.436776 
L 85.819808 65.626379 
L 87.385339 72.950686 
L 88.95087 95.292794 
L 90.516402 85.299166 
L 92.081933 88.166601 
L 93.647464 86.603668 
L 95.212995 72.017758 
L 96.778526 70.552779 
L 98.344057 76.006622 
L 99.909588 77.071829 
L 101.475119 80.003347 
L 103.04065 75.714682 
L 104.606181 83.567434 
L 106.171712 73.441857 
L 107.737243 81.856947 
L 109.302774 80.989098 
L 110.868305 90.656657 
L 112.433836 80.171238 
L 113.999367 87.95242 
L 117.13043 76.779167 
L 118.695961 73.687917 
L 120.261492 76.063528 
L 121.827023 80.668958 
L 123.392554 96.712863 
L 124.958085 91.700963 
L 126.523616 77.759495 
L 128.089147 89.100306 
L 129.654678 91.896134 
L 131.220209 80.79748 
L 132.78574 75.364387 
L 134.351271 69.017617 
L 135.916802 78.822922 
L 137.482333 85.520654 
L 139.047864 95.879134 
L 140.613396 77.842652 
L 142.178927 66.199198 
L 143.744458 94.733356 
L 145.309989 92.728674 
L 146.87552 92.883926 
L 148.441051 99.341735 
L 150.006582 92.92424 
L 151.572113 89.043807 
L 153.137644 95.236835 
L 154.703175 89.36029 
L 156.268706 100.492109 
L 157.834237 83.698361 
L 159.399768 86.956304 
L 160.965299 87.694204 
L 162.53083 109.495117 
L 165.661893 80.506453 
L 167.227424 98.55587 
L 168.792955 95.031091 
L 170.358486 79.799202 
L 171.924017 100.54324 
L 173.489548 88.885611 
L 175.055079 95.271046 
L 176.62061 99.344674 
L 178.186141 82.997942 
L 179.751672 93.644481 
L 181.317203 76.242314 
L 182.882734 99.364932 
L 184.448265 85.670179 
L 186.013796 83.768518 
L 187.579327 86.751609 
L 189.144858 82.967537 
L 190.71039 96.910174 
L 192.275921 67.510742 
L 193.841452 72.642562 
L 196.972514 86.095225 
L 198.538045 73.002952 
L 200.103576 81.361532 
L 201.669107 75.027783 
L 203.234638 74.651797 
L 204.800169 61.948822 
L 206.3657 94.314163 
L 207.931231 73.175138 
L 209.496762 77.355396 
L 211.062293 86.452252 
L 212.627824 92.825589 
L 214.193355 85.317337 
L 215.758887 98.520899 
L 217.324418 90.875719 
L 218.889949 76.217655 
L 220.45548 77.860765 
L 222.021011 82.48335 
L 223.586542 91.537546 
L 225.152073 85.532142 
L 226.717604 89.306908 
L 228.283135 85.930241 
L 229.848666 107.620548 
L 231.414197 103.960117 
L 232.979728 104.288813 
L 234.545259 107.224923 
L 236.11079 92.920057 
L 237.676321 103.858138 
L 239.241852 77.717345 
L 240.807384 94.661995 
L 242.372915 90.137912 
L 243.938446 88.219564 
L 245.503977 106.816395 
L 247.069508 90.405488 
L 248.635039 81.722432 
L 250.20057 91.219485 
L 251.766101 87.850461 
L 253.331632 96.684531 
L 254.897163 89.36789 
L 256.462694 91.604993 
L 258.028225 92.943759 
L 259.593756 98.289965 
L 261.159287 110.673322 
L 262.724818 93.738301 
L 264.290349 89.597945 
L 265.855881 86.47368 
L 267.421412 93.137493 
L 268.986943 77.106575 
L 270.552474 87.142042 
L 272.118005 87.931694 
L 273.683536 99.373176 
L 275.249067 90.457947 
L 276.814598 79.482467 
L 278.380129 100.490278 
L 279.94566 95.51021 
L 281.511191 84.601787 
L 283.076722 96.014171 
L 284.642253 89.215398 
L 286.207784 94.040745 
L 287.773315 90.429219 
L 289.338846 84.175936 
L 290.904378 84.183553 
L 292.469909 96.372297 
L 294.03544 96.966084 
L 295.600971 83.917313 
L 297.166502 101.494131 
L 298.732033 82.434851 
L 300.297564 65.495962 
L 301.863095 91.039669 
L 303.428626 68.462397 
L 304.994157 91.506085 
L 306.559688 91.864153 
L 308.125219 96.234533 
L 309.69075 81.785644 
L 311.256281 99.760954 
L 312.821812 72.911719 
L 314.387343 81.98844 
L 315.952874 83.585538 
L 317.518406 105.31427 
L 319.083937 82.183386 
L 320.649468 79.781964 
L 322.214999 98.96659 
L 323.78053 87.296309 
L 325.346061 103.165259 
L 326.911592 93.194797 
L 328.477123 88.425343 
L 330.042654 107.212339 
L 331.608185 92.327309 
L 333.173716 100.653219 
L 334.739247 99.557326 
L 336.304778 89.021862 
L 337.870309 91.962709 
L 339.43584 97.806686 
L 341.001371 102.786303 
L 342.566903 105.395233 
L 344.132434 100.242757 
L 345.697965 82.852252 
L 347.263496 86.203688 
L 348.829027 103.719418 
L 350.394558 90.329843 
L 351.960089 97.313409 
L 353.52562 85.793322 
L 355.091151 80.671055 
L 356.656682 79.575642 
L 358.222213 98.700868 
L 359.787744 87.25108 
L 361.353275 89.317243 
L 362.918806 86.498348 
L 364.484337 82.673588 
L 366.049868 81.132124 
L 367.6154 86.778603 
L 369.180931 83.457491 
L 370.746462 85.485529 
L 372.311993 95.561009 
L 373.877524 102.844707 
L 375.443055 70.578958 
L 377.008586 109.07055 
L 378.574117 90.687922 
L 380.139648 98.556664 
L 381.705179 90.165589 
L 383.27071 89.038752 
L 384.836241 95.608148 
L 386.401772 91.692378 
L 387.967303 100.315017 
L 389.532834 104.338446 
L 391.098365 78.929105 
L 392.663897 90.936973 
L 394.229428 92.303577 
L 395.794959 79.906217 
L 397.36049 105.653422 
L 398.926021 83.402577 
L 400.491552 74.699948 
L 402.057083 74.205884 
L 403.622614 88.652553 
L 405.188145 83.084705 
L 406.753676 84.286424 
L 408.319207 83.466542 
L 409.884738 104.122215 
L 411.450269 85.704679 
L 413.0158 92.251835 
L 414.581331 102.022922 
L 416.146862 102.092735 
L 417.712394 99.545939 
L 419.277925 106.770695 
L 420.843456 105.354462 
L 422.408987 95.926628 
L 423.974518 106.768091 
L 425.540049 83.876847 
L 427.10558 97.653999 
L 428.671111 90.095096 
L 430.236642 103.942778 
L 431.802173 103.572076 
L 433.367704 118.378207 
L 434.933235 91.403614 
L 436.498766 93.261163 
L 438.064297 98.436778 
L 439.629828 93.914669 
L 441.195359 97.449646 
L 442.760891 93.831121 
L 444.326422 107.306064 
L 445.891953 73.11341 
L 447.457484 98.898451 
L 449.023015 102.414868 
L 450.588546 108.151681 
L 452.154077 83.60735 
L 453.719608 94.074234 
L 455.285139 87.662018 
L 456.85067 103.344737 
L 458.416201 91.053786 
L 459.981732 87.749857 
L 461.547263 114.369018 
L 463.112794 105.897411 
L 464.678325 101.029957 
L 466.243856 105.715756 
L 467.809388 112.3727 
L 469.374919 109.221943 
L 470.94045 94.696905 
L 472.505981 98.746247 
L 474.071512 76.732706 
L 475.637043 87.146248 
L 477.202574 86.047539 
L 478.768105 101.588424 
L 480.333636 111.646161 
L 481.899167 113.644463 
L 483.464698 129.508856 
L 485.030229 107.228551 
L 486.59576 106.651346 
L 488.161291 118.509646 
L 489.726822 115.944416 
L 491.292353 106.679807 
L 492.857885 107.107379 
L 494.423416 91.158333 
L 495.988947 89.790249 
L 497.554478 77.79964 
L 499.120009 112.656935 
L 500.68554 101.909122 
L 502.251071 99.759029 
L 503.816602 116.643295 
L 505.382133 100.013948 
L 506.947664 100.119672 
L 508.513195 102.781899 
L 510.078726 98.140704 
L 511.644257 102.573063 
L 513.209788 107.953338 
L 514.775319 107.090849 
L 516.34085 91.651414 
L 517.906382 86.471066 
L 519.471913 115.525349 
L 521.037444 98.336373 
L 522.602975 84.936447 
L 524.168506 107.047533 
L 525.734037 108.162182 
L 527.299568 108.081352 
L 528.865099 108.195559 
L 530.43063 124.8212 
L 531.996161 109.95118 
L 533.561692 111.216213 
L 535.127223 105.827688 
L 536.692754 103.495281 
L 538.258285 102.803757 
L 539.823816 94.078978 
L 541.389347 94.056672 
L 542.954879 111.013979 
L 544.52041 99.789072 
L 546.085941 103.713846 
L 547.651472 111.557691 
L 549.217003 74.151119 
L 550.782534 112.949892 
L 552.348065 106.857094 
L 553.913596 120.107926 
L 555.479127 118.565813 
L 557.044658 103.375054 
L 558.610189 103.440607 
L 560.17572 135.453053 
L 561.741251 110.193266 
L 563.306782 126.151649 
L 564.872313 109.185384 
L 566.437844 114.458118 
L 568.003376 107.421368 
L 569.568907 94.893853 
L 571.134438 86.489756 
L 572.699969 83.86742 
L 574.2655 89.103588 
L 575.831031 89.441411 
L 577.396562 99.995261 
L 578.962093 85.190874 
L 580.527624 116.570405 
L 582.093155 114.175252 
L 583.658686 105.939007 
L 585.224217 110.742324 
L 586.789748 112.420815 
L 588.355279 91.188677 
L 589.92081 114.057338 
L 591.486341 120.895591 
L 593.051872 89.189881 
L 594.617404 91.736732 
L 596.182935 102.299332 
L 597.748466 88.465785 
L 599.313997 98.867748 
L 600.879528 104.423606 
L 602.445059 105.895172 
L 604.01059 109.92571 
L 605.576121 93.761755 
L 607.141652 96.214208 
L 608.707183 113.707414 
L 610.272714 92.06756 
L 611.838245 90.834679 
L 613.403776 100.122269 
L 614.969307 99.671593 
L 616.534838 91.505482 
L 618.100369 107.423248 
L 619.665901 101.050987 
L 621.231432 104.591894 
L 622.796963 94.876399 
L 624.362494 90.522355 
L 625.928025 112.473992 
L 627.493556 112.874156 
L 629.059087 108.288202 
L 630.624618 115.933406 
L 632.190149 97.107853 
L 633.75568 118.145995 
L 635.321211 108.75051 
L 636.886742 111.836895 
L 638.452273 113.589891 
L 640.017804 97.968195 
L 641.583335 115.45628 
L 643.148866 123.479774 
L 644.714398 123.51697 
L 646.279929 116.625208 
L 647.84546 105.944986 
L 649.410991 106.501362 
L 650.976522 96.190103 
L 652.542053 119.183594 
L 654.107584 90.944739 
L 655.673115 104.103367 
L 657.238646 92.013016 
L 658.804177 115.492294 
L 660.369708 108.829496 
L 661.935239 81.400755 
L 663.50077 92.312091 
L 665.066301 73.635894 
L 666.631832 114.534973 
L 668.197363 93.125551 
L 669.762895 94.144262 
L 671.328426 111.552327 
L 672.893957 101.198283 
L 674.459488 118.301119 
L 676.025019 105.218185 
L 677.59055 115.077031 
L 679.156081 121.818516 
L 680.721612 122.915784 
L 682.287143 121.849819 
L 683.852674 111.481976 
L 685.418205 96.884811 
L 686.983736 100.23229 
L 688.549267 99.292852 
L 690.114798 108.037334 
L 691.680329 105.458402 
L 693.24586 103.624478 
L 694.811392 103.961268 
L 696.376923 100.590878 
L 697.942454 89.820898 
L 699.507985 93.792512 
L 701.073516 99.324736 
L 702.639047 86.628463 
L 704.204578 100.323275 
L 705.770109 101.874298 
L 707.33564 101.298128 
L 708.901171 106.236154 
L 710.466702 96.829699 
L 712.032233 110.870826 
L 713.597764 110.098936 
L 715.163295 97.387104 
L 716.728826 101.107919 
L 718.294357 105.749499 
L 719.859889 112.236897 
L 721.42542 115.727284 
L 722.990951 108.706373 
L 724.556482 97.722744 
L 726.122013 106.99859 
L 727.687544 108.14212 
L 729.253075 114.794863 
L 730.818606 103.275289 
L 732.384137 114.753516 
L 735.515199 119.235428 
L 737.08073 110.07672 
L 738.646261 114.546064 
L 740.211792 120.024074 
L 741.777323 106.485448 
L 743.342854 119.811911 
L 744.908386 126.884868 
L 746.473917 115.462966 
L 748.039448 94.552737 
L 749.604979 114.529508 
L 751.17051 114.755546 
L 752.736041 120.221286 
L 754.301572 113.917819 
L 755.867103 97.538155 
L 757.432634 94.268354 
L 758.998165 114.564374 
L 760.563696 113.921397 
L 762.129227 107.365272 
L 763.694758 89.17493 
L 765.260289 94.145713 
L 766.82582 80.718009 
L 768.391351 103.630276 
L 769.956883 94.600288 
L 771.522414 92.806854 
L 773.087945 115.425975 
L 774.653476 100.182251 
L 776.219007 104.243875 
L 777.784538 102.636102 
L 779.350069 100.433198 
L 780.9156 117.821396 
L 782.481131 111.504394 
L 784.046662 108.193204 
L 785.612193 91.397466 
L 787.177724 89.803468 
L 788.743255 92.98141 
L 790.308786 108.044785 
L 791.874317 91.347736 
L 795.00538 126.86548 
L 796.570911 103.843301 
L 798.136442 106.06219 
L 799.701973 96.725664 
L 801.267504 114.39225 
L 802.833035 123.452342 
L 804.398566 119.479058 
L 805.964097 113.204806 
L 807.529628 111.71993 
L 809.095159 109.135285 
L 810.66069 106.822982 
L 812.226221 124.516226 
L 813.791752 93.000424 
L 815.357283 115.455459 
L 816.922814 112.773332 
L 818.488345 112.182823 
L 820.053877 110.976044 
L 821.619408 104.616855 
L 823.184939 121.153626 
L 824.75047 127.399635 
L 826.316001 102.724429 
L 829.447063 120.305006 
L 831.012594 115.305706 
L 832.578125 114.401433 
L 832.578125 114.401433 
" clip-path="url(#p21a5c9c640)" style="fill: none; stroke: #0047ab; stroke-width: 2; stroke-linecap: square"/>
   </g>
   <g id="line2d_74">
    <path d="M 69.137602 -1 
L 70.164498 21.344513 
L 71.730029 3.141967 
L 73.29556 29.077409 
L 74.861091 40.999614 
L 76.426622 43.339953 
L 77.992153 63.480262 
L 79.557684 67.668781 
L 81.123215 60.593057 
L 82.688746 79.647463 
L 84.254277 63.242335 
L 85.819808 51.498552 
L 87.385339 84.742865 
L 88.95087 70.309456 
L 90.516402 103.30597 
L 92.081933 95.457317 
L 93.647464 86.114191 
L 95.212995 99.806542 
L 96.778526 96.814275 
L 98.344057 50.883275 
L 99.909588 75.7809 
L 101.475119 55.072502 
L 103.04065 72.336784 
L 104.606181 54.537681 
L 106.171712 45.770147 
L 107.737243 78.086549 
L 109.302774 89.066936 
L 110.868305 61.00947 
L 112.433836 76.772847 
L 113.999367 78.28925 
L 115.564899 73.950579 
L 117.13043 91.689068 
L 118.695961 59.801051 
L 120.261492 95.77366 
L 121.827023 54.478149 
L 123.392554 81.33771 
L 124.958085 73.070348 
L 126.523616 100.355035 
L 129.654678 51.341579 
L 131.220209 86.080378 
L 132.78574 75.938325 
L 134.351271 51.899995 
L 135.916802 76.950534 
L 137.482333 95.300806 
L 139.047864 50.621823 
L 140.613396 89.35726 
L 142.178927 96.388428 
L 143.744458 43.095154 
L 145.309989 74.481391 
L 146.87552 84.470073 
L 148.441051 67.407568 
L 150.006582 106.409929 
L 151.572113 74.779383 
L 153.137644 111.772124 
L 154.703175 59.125482 
L 156.268706 86.791902 
L 157.834237 53.053031 
L 159.399768 76.85251 
L 160.965299 96.630669 
L 162.53083 64.563096 
L 164.096361 62.775066 
L 165.661893 90.299714 
L 167.227424 96.521076 
L 168.792955 67.747707 
L 170.358486 101.553288 
L 171.924017 82.198041 
L 173.489548 72.745198 
L 175.055079 75.394848 
L 176.62061 74.832371 
L 178.186141 123.251604 
L 179.751672 66.635474 
L 181.317203 92.189459 
L 182.882734 64.539434 
L 184.448265 74.647992 
L 186.013796 95.067605 
L 187.579327 80.301342 
L 189.144858 98.561696 
L 190.71039 65.225144 
L 192.275921 54.153622 
L 193.841452 80.781429 
L 196.972514 43.205213 
L 198.538045 75.682153 
L 200.103576 56.148217 
L 201.669107 68.793283 
L 203.234638 58.159728 
L 204.800169 70.237449 
L 206.3657 48.967115 
L 207.931231 66.529657 
L 209.496762 102.654824 
L 211.062293 46.322353 
L 212.627824 119.152907 
L 214.193355 85.252173 
L 215.758887 47.146012 
L 217.324418 89.596188 
L 218.889949 71.386038 
L 220.45548 34.88013 
L 222.021011 101.236495 
L 223.586542 77.256673 
L 225.152073 60.87939 
L 226.717604 78.75617 
L 228.283135 78.645756 
L 229.848666 113.568626 
L 231.414197 83.593599 
L 232.979728 89.052136 
L 234.545259 109.455444 
L 236.11079 79.571455 
L 237.676321 85.938903 
L 239.241852 90.287946 
L 240.807384 65.794436 
L 242.372915 71.241238 
L 243.938446 86.683379 
L 245.503977 91.941118 
L 247.069508 111.931709 
L 248.635039 79.851122 
L 250.20057 127.404139 
L 251.766101 72.488772 
L 253.331632 58.18873 
L 254.897163 111.41373 
L 256.462694 75.690565 
L 258.028225 130.03953 
L 259.593756 91.526674 
L 261.159287 96.1769 
L 262.724818 91.935522 
L 264.290349 96.244228 
L 265.855881 117.80133 
L 267.421412 65.127402 
L 268.986943 71.918174 
L 270.552474 94.563203 
L 272.118005 96.832969 
L 273.683536 53.344064 
L 275.249067 80.040016 
L 276.814598 118.316465 
L 278.380129 59.844494 
L 279.94566 92.912455 
L 281.511191 90.627004 
L 283.076722 79.041691 
L 284.642253 75.910253 
L 286.207784 69.955723 
L 287.773315 98.406032 
L 289.338846 85.055893 
L 290.904378 64.588448 
L 292.469909 74.062078 
L 294.03544 62.737486 
L 295.600971 104.968943 
L 297.166502 79.913239 
L 298.732033 96.673302 
L 300.297564 77.547446 
L 301.863095 63.079446 
L 303.428626 79.790513 
L 304.994157 74.829167 
L 306.559688 68.208088 
L 308.125219 95.297707 
L 309.69075 98.432134 
L 311.256281 60.113386 
L 312.821812 63.745404 
L 314.387343 88.832855 
L 315.952874 50.547727 
L 317.518406 77.925089 
L 319.083937 81.217726 
L 320.649468 63.628311 
L 322.214999 87.839059 
L 323.78053 102.612645 
L 325.346061 66.82902 
L 326.911592 98.915718 
L 328.477123 106.695982 
L 330.042654 71.552724 
L 331.608185 81.123234 
L 333.173716 82.26463 
L 334.739247 110.665402 
L 336.304778 62.048475 
L 337.870309 109.471982 
L 339.43584 74.47113 
L 341.001371 55.526681 
L 342.566903 133.418473 
L 344.132434 98.972282 
L 345.697965 59.769035 
L 347.263496 79.503433 
L 348.829027 87.873172 
L 350.394558 66.603138 
L 351.960089 114.970386 
L 353.52562 64.130246 
L 355.091151 59.409339 
L 356.656682 91.95719 
L 358.222213 58.322677 
L 359.787744 57.19504 
L 361.353275 67.24345 
L 362.918806 67.236473 
L 364.484337 81.415518 
L 366.049868 107.781812 
L 367.6154 67.347081 
L 369.180931 65.640901 
L 370.746462 83.060485 
L 372.311993 91.505972 
L 373.877524 66.29466 
L 375.443055 89.295068 
L 377.008586 99.210198 
L 378.574117 59.345788 
L 380.139648 53.704304 
L 381.705179 81.616973 
L 383.27071 122.941964 
L 384.836241 48.126252 
L 386.401772 94.59272 
L 387.967303 105.613569 
L 389.532834 82.992461 
L 391.098365 108.174207 
L 392.663897 92.66114 
L 394.229428 47.58853 
L 395.794959 114.562399 
L 397.36049 78.654727 
L 398.926021 62.80582 
L 400.491552 76.647343 
L 402.057083 77.135412 
L 403.622614 60.506211 
L 405.188145 73.508814 
L 406.753676 96.558586 
L 408.319207 72.519667 
L 409.884738 56.394128 
L 411.450269 97.521191 
L 413.0158 75.961356 
L 414.581331 92.088626 
L 416.146862 98.031756 
L 417.712394 91.843298 
L 419.277925 97.537179 
L 420.843456 97.13167 
L 422.408987 77.692098 
L 423.974518 76.311352 
L 425.540049 111.80603 
L 427.10558 75.116793 
L 428.671111 102.939898 
L 430.236642 95.594412 
L 433.367704 60.061995 
L 434.933235 101.884155 
L 436.498766 105.079989 
L 438.064297 57.485978 
L 439.629828 68.872226 
L 441.195359 94.759199 
L 442.760891 89.270939 
L 444.326422 66.458027 
L 445.891953 112.27433 
L 447.457484 81.055502 
L 449.023015 70.832967 
L 450.588546 108.6952 
L 452.154077 79.006619 
L 453.719608 94.437175 
L 455.285139 66.421463 
L 456.85067 73.148687 
L 458.416201 75.75747 
L 459.981732 112.163269 
L 461.547263 84.037434 
L 463.112794 81.549205 
L 464.678325 99.503162 
L 466.243856 75.528134 
L 467.809388 90.917057 
L 469.374919 107.673583 
L 470.94045 88.838084 
L 472.505981 68.493637 
L 474.071512 94.451065 
L 475.637043 53.845598 
L 477.202574 111.837311 
L 478.768105 73.153833 
L 480.333636 94.565374 
L 481.899167 101.141875 
L 483.464698 84.835881 
L 485.030229 102.599168 
L 486.59576 99.751934 
L 488.161291 93.67351 
L 489.726822 93.634345 
L 491.292353 115.286941 
L 492.857885 83.435896 
L 494.423416 85.345834 
L 495.988947 89.768363 
L 497.554478 95.399857 
L 499.120009 77.627102 
L 500.68554 95.685242 
L 502.251071 84.558412 
L 503.816602 128.244549 
L 505.382133 114.389442 
L 506.947664 75.30547 
L 508.513195 81.49808 
L 510.078726 114.614162 
L 511.644257 107.126552 
L 513.209788 95.713509 
L 514.775319 85.254646 
L 516.34085 81.202466 
L 517.906382 98.801199 
L 519.471913 94.63634 
L 521.037444 102.775805 
L 522.602975 64.618149 
L 524.168506 114.277456 
L 525.734037 101.505645 
L 527.299568 79.93071 
L 528.865099 106.779266 
L 530.43063 107.759922 
L 531.996161 92.584428 
L 533.561692 137.507379 
L 535.127223 114.265017 
L 536.692754 81.499658 
L 538.258285 114.180106 
L 539.823816 97.380572 
L 541.389347 89.201226 
L 542.954879 70.872214 
L 544.52041 83.406369 
L 546.085941 97.504675 
L 547.651472 81.548767 
L 549.217003 115.850242 
L 550.782534 80.041619 
L 552.348065 83.797756 
L 553.913596 110.158678 
L 555.479127 108.892644 
L 557.044658 83.918361 
L 558.610189 112.58283 
L 560.17572 76.938263 
L 561.741251 116.384207 
L 563.306782 104.138274 
L 564.872313 97.152283 
L 566.437844 108.576765 
L 568.003376 93.155007 
L 569.568907 90.018611 
L 571.134438 100.532242 
L 572.699969 71.110519 
L 574.2655 87.345082 
L 575.831031 77.353897 
L 577.396562 61.724411 
L 578.962093 80.761944 
L 580.527624 126.870367 
L 582.093155 74.663573 
L 583.658686 86.225349 
L 585.224217 107.317876 
L 586.789748 88.061275 
L 588.355279 116.371249 
L 589.92081 92.44601 
L 591.486341 103.253807 
L 593.051872 89.664632 
L 594.617404 69.974841 
L 596.182935 113.072903 
L 597.748466 97.079134 
L 599.313997 73.117316 
L 600.879528 100.354588 
L 602.445059 104.69466 
L 604.01059 80.242797 
L 605.576121 93.849663 
L 607.141652 83.000222 
L 608.707183 94.41697 
L 610.272714 104.495622 
L 611.838245 94.998951 
L 613.403776 106.089575 
L 614.969307 85.865761 
L 616.534838 80.120798 
L 618.100369 92.934341 
L 619.665901 83.774448 
L 621.231432 81.709958 
L 622.796963 101.12273 
L 624.362494 70.781624 
L 625.928025 112.682561 
L 627.493556 98.688585 
L 629.059087 78.492031 
L 630.624618 118.480696 
L 632.190149 116.319028 
L 633.75568 82.903901 
L 635.321211 97.001492 
L 636.886742 100.209203 
L 638.452273 94.118365 
L 640.017804 93.371635 
L 641.583335 100.234826 
L 643.148866 79.587433 
L 644.714398 128.76253 
L 646.279929 106.634339 
L 647.84546 91.120775 
L 649.410991 93.877075 
L 650.976522 108.308548 
L 652.542053 77.254892 
L 654.107584 80.816401 
L 655.673115 115.221077 
L 657.238646 75.44333 
L 658.804177 118.181193 
L 660.369708 85.199413 
L 661.935239 70.741112 
L 663.50077 89.637137 
L 665.066301 89.216307 
L 666.631832 49.24626 
L 668.197363 92.530593 
L 669.762895 109.536941 
L 671.328426 72.602794 
L 672.893957 94.922238 
L 674.459488 103.029256 
L 676.025019 103.81893 
L 677.59055 96.640738 
L 679.156081 105.437755 
L 680.721612 87.257174 
L 682.287143 91.493242 
L 683.852674 101.566182 
L 685.418205 70.169549 
L 686.983736 116.229019 
L 688.549267 114.456185 
L 690.114798 87.802324 
L 691.680329 104.618947 
L 693.24586 76.021033 
L 694.811392 92.565129 
L 696.376923 93.143928 
L 697.942454 85.222349 
L 699.507985 98.201506 
L 701.073516 66.036826 
L 702.639047 63.340514 
L 704.204578 98.097876 
L 705.770109 113.003253 
L 707.33564 119.239176 
L 708.901171 98.065326 
L 710.466702 88.66538 
L 712.032233 104.728295 
L 713.597764 97.686112 
L 715.163295 80.115099 
L 716.728826 85.848339 
L 718.294357 73.918115 
L 719.859889 85.40627 
L 721.42542 108.931273 
L 722.990951 109.052847 
L 724.556482 76.91059 
L 726.122013 81.150159 
L 727.687544 108.106301 
L 729.253075 87.895135 
L 730.818606 82.628899 
L 732.384137 135.494327 
L 733.949668 121.691903 
L 735.515199 102.054284 
L 737.08073 123.057365 
L 738.646261 87.892384 
L 740.211792 76.69649 
L 741.777323 93.283386 
L 743.342854 120.026002 
L 744.908386 92.72618 
L 746.473917 131.805255 
L 748.039448 103.309427 
L 749.604979 89.985688 
L 751.17051 97.384489 
L 752.736041 103.118831 
L 754.301572 91.708046 
L 755.867103 82.960544 
L 757.432634 79.857453 
L 758.998165 107.403187 
L 760.563696 75.444543 
L 762.129227 93.367117 
L 763.694758 99.701294 
L 765.260289 86.329877 
L 766.82582 90.994885 
L 768.391351 60.672033 
L 769.956883 108.457683 
L 771.522414 79.503073 
L 773.087945 69.288891 
L 774.653476 92.620823 
L 776.219007 106.361021 
L 777.784538 94.114813 
L 779.350069 99.377293 
L 780.9156 93.848752 
L 782.481131 95.407814 
L 784.046662 119.44283 
L 785.612193 113.301853 
L 787.177724 72.528803 
L 788.743255 66.32788 
L 790.308786 66.897979 
L 791.874317 92.042205 
L 793.439848 76.858729 
L 795.00538 130.391486 
L 796.570911 113.003426 
L 798.136442 76.629349 
L 799.701973 137.354784 
L 801.267504 104.779999 
L 802.833035 83.356514 
L 804.398566 96.986293 
L 805.964097 131.361778 
L 807.529628 96.052957 
L 809.095159 85.245016 
L 810.66069 121.670249 
L 812.226221 88.701989 
L 813.791752 90.447405 
L 815.357283 109.519036 
L 816.922814 95.357716 
L 818.488345 100.499382 
L 820.053877 99.479523 
L 821.619408 110.507633 
L 823.184939 98.083549 
L 824.75047 103.848617 
L 826.316001 114.451601 
L 827.881532 84.570061 
L 829.447063 92.995277 
L 831.012594 121.940748 
L 832.578125 96.921854 
L 832.578125 96.921854 
" clip-path="url(#p21a5c9c640)" style="fill: none; stroke-dasharray: 7.4,3.2; stroke-dashoffset: 0; stroke: #ff6f61; stroke-width: 2"/>
   </g>
   <g id="patch_3">
    <path d="M 51.378125 399.079219 
L 51.378125 10.999219 
" style="fill: none; stroke: #000000; stroke-width: 0.8; stroke-linejoin: miter; stroke-linecap: square"/>
   </g>
   <g id="patch_4">
    <path d="M 832.578125 399.079219 
L 832.578125 10.999219 
" style="fill: none; stroke: #000000; stroke-width: 0.8; stroke-linejoin: miter; stroke-linecap: square"/>
   </g>
   <g id="patch_5">
    <path d="M 51.378125 399.079219 
L 832.578125 399.079219 
" style="fill: none; stroke: #000000; stroke-width: 0.8; stroke-linejoin: miter; stroke-linecap: square"/>
   </g>
   <g id="patch_6">
    <path d="M 51.378125 10.999219 
L 832.578125 10.999219 
" style="fill: none; stroke: #000000; stroke-width: 0.8; stroke-linejoin: miter; stroke-linecap: square"/>
   </g>
   <g id="legend_1">
    <g id="patch_7">
     <path d="M 770.303125 48.355469 
L 825.578125 48.355469 
Q 827.578125 48.355469 827.578125 46.355469 
L 827.578125 17.999219 
Q 827.578125 15.999219 825.578125 15.999219 
L 770.303125 15.999219 
Q 768.303125 15.999219 768.303125 17.999219 
L 768.303125 46.355469 
Q 768.303125 48.355469 770.303125 48.355469 
z
" style="fill: #ffffff; opacity: 0.8; stroke: #cccccc; stroke-linejoin: miter"/>
    </g>
    <g id="line2d_75">
     <path d="M 772.303125 24.097656 
L 782.303125 24.097656 
L 792.303125 24.097656 
" style="fill: none; stroke: #0047ab; stroke-width: 2; stroke-linecap: square"/>
    </g>
    <g id="text_15">
     <!-- train -->
     <g transform="translate(800.303125 27.597656) scale(0.1 -0.1)">
      <defs>
       <path id="DejaVuSans-74" d="M 1172 4494 
L 1172 3500 
L 2356 3500 
L 2356 3053 
L 1172 3053 
L 1172 1153 
Q 1172 725 1289 603 
Q 1406 481 1766 481 
L 2356 481 
L 2356 0 
L 1766 0 
Q 1100 0 847 248 
Q 594 497 594 1153 
L 594 3053 
L 172 3053 
L 172 3500 
L 594 3500 
L 594 4494 
L 1172 4494 
z
" transform="scale(0.015625)"/>
       <path id="DejaVuSans-72" d="M 2631 2963 
Q 2534 3019 2420 3045 
Q 2306 3072 2169 3072 
Q 1681 3072 1420 2755 
Q 1159 2438 1159 1844 
L 1159 0 
L 581 0 
L 581 3500 
L 1159 3500 
L 1159 2956 
Q 1341 3275 1631 3429 
Q 1922 3584 2338 3584 
Q 2397 3584 2469 3576 
Q 2541 3569 2628 3553 
L 2631 2963 
z
" transform="scale(0.015625)"/>
       <path id="DejaVuSans-61" d="M 2194 1759 
Q 1497 1759 1228 1600 
Q 959 1441 959 1056 
Q 959 750 1161 570 
Q 1363 391 1709 391 
Q 2188 391 2477 730 
Q 2766 1069 2766 1631 
L 2766 1759 
L 2194 1759 
z
M 3341 1997 
L 3341 0 
L 2766 0 
L 2766 531 
Q 2569 213 2275 61 
Q 1981 -91 1556 -91 
Q 1019 -91 701 211 
Q 384 513 384 1019 
Q 384 1609 779 1909 
Q 1175 2209 1959 2209 
L 2766 2209 
L 2766 2266 
Q 2766 2663 2505 2880 
Q 2244 3097 1772 3097 
Q 1472 3097 1187 3025 
Q 903 2953 641 2809 
L 641 3341 
Q 956 3463 1253 3523 
Q 1550 3584 1831 3584 
Q 2591 3584 2966 3190 
Q 3341 2797 3341 1997 
z
" transform="scale(0.015625)"/>
       <path id="DejaVuSans-69" d="M 603 3500 
L 1178 3500 
L 1178 0 
L 603 0 
L 603 3500 
z
M 603 4863 
L 1178 4863 
L 1178 4134 
L 603 4134 
L 603 4863 
z
" transform="scale(0.015625)"/>
       <path id="DejaVuSans-6e" d="M 3513 2113 
L 3513 0 
L 2938 0 
L 2938 2094 
Q 2938 2591 2744 2837 
Q 2550 3084 2163 3084 
Q 1697 3084 1428 2787 
Q 1159 2491 1159 1978 
L 1159 0 
L 581 0 
L 581 3500 
L 1159 3500 
L 1159 2956 
Q 1366 3272 1645 3428 
Q 1925 3584 2291 3584 
Q 2894 3584 3203 3211 
Q 3513 2838 3513 2113 
z
" transform="scale(0.015625)"/>
      </defs>
      <use xlink:href="#DejaVuSans-74"/>
      <use xlink:href="#DejaVuSans-72" x="39.208984"/>
      <use xlink:href="#DejaVuSans-61" x="80.322266"/>
      <use xlink:href="#DejaVuSans-69" x="141.601562"/>
      <use xlink:href="#DejaVuSans-6e" x="169.384766"/>
     </g>
    </g>
    <g id="line2d_76">
     <path d="M 772.303125 38.775781 
L 782.303125 38.775781 
L 792.303125 38.775781 
" style="fill: none; stroke-dasharray: 7.4,3.2; stroke-dashoffset: 0; stroke: #ff6f61; stroke-width: 2"/>
    </g>
    <g id="text_16">
     <!-- test -->
     <g transform="translate(800.303125 42.275781) scale(0.1 -0.1)">
      <use xlink:href="#DejaVuSans-74"/>
      <use xlink:href="#DejaVuSans-65" x="39.208984"/>
      <use xlink:href="#DejaVuSans-73" x="100.732422"/>
      <use xlink:href="#DejaVuSans-74" x="152.832031"/>
     </g>
    </g>
   </g>
  </g>
 </g>
 <defs>
  <clipPath id="p21a5c9c640">
   <rect x="51.378125" y="10.999219" width="781.2" height="388.08"/>
  </clipPath>
 </defs>
</svg>
